<svg t="1738590411754" class="icon" viewBox="0 0 1024 1024" version="1.1" xmlns="http://www.w3.org/2000/svg" p-id="7472" width="200" height="200"><path d="M682 576.5c-34.4 0-65.1 16.5-84.4 42H704v-39.7c-7.1-1.5-14.4-2.3-22-2.3z m-63.9-203.8h20L593 315l-121 70.8-216-96.4v329.2h116.1v-0.1h85c4.9-17.3 11.9-34 20.7-49.8l-14.1-14.1H320V387.9l151 67.4 37.1-37.1 12.9 12.9 55.9-32.7 41.1 52.5v-78.2z" fill="#cdcdcd" p-id="7473"></path><path d="M577 398.4l-55.9 32.7 47.2 47.1c15.7-8.8 32.5-15.7 49.8-20.7v-6.6L577 398.4z m-257-10.5v166.7h143.7l-46-46 53.3-53.3-151-67.4z" fill="#cdcdcd" p-id="7474"></path><path d="M960 714.3v-63.9h-78.6c-5.1-31.8-17.7-61.2-35.8-86.2l55.6-55.6-45.2-45.2-55.6 55.6c-25.1-18.2-54.5-30.7-86.3-35.8v-78.5h-64v78.5c-31.8 5.1-61.2 17.6-86.3 35.8l-55.6-55.6-45.2 45.2 55.6 55.6c-18.2 25-30.8 54.4-35.9 86.2h-78.6v63.9h78.6c5.1 31.8 17.7 61.2 35.8 86.2l-55.6 55.6 45.2 45.2 55.6-55.6c25.1 18.2 54.5 30.7 86.3 35.8V960h64v-78.5c31.8-5.1 61.2-17.6 86.3-35.8l55.6 55.6 45.2-45.2-55.6-55.6c18.2-25 30.8-54.4 35.9-86.2H960z m-140-32c0 76-61.9 137.8-137.9 137.8s-137.9-61.8-137.9-137.8S606 544.5 682 544.5s138 61.8 138 137.8z" fill="#cdcdcd" p-id="7475"></path><path d="M896 64H704v64.4H256V64H64v191.8h64v447.5H64v191.8h192v-63.9h576V255.8h64V64z m-768 63.9h64v63.9h-64v-63.9z m0 703.2v-63.9h64v63.9h-64z m703-382.8v382.3H448v-63.4H256v-64h-64V255.8h64v-63.5h448v63.5h64v192.6h63z m1-256.5h-64v-63.9h64v63.9z" fill="#cdcdcd" p-id="7476"></path></svg>