<svg t="1738952407175" class="icon" viewBox="0 0 1462 1024" version="1.1" xmlns="http://www.w3.org/2000/svg" p-id="1607" width="200" height="200"><path d="M0 0m41.673763 0l1166.86537 0q41.673763 0 41.673763 41.673763l0 791.801501q0 41.673763-41.673763 41.673763l-1166.86537 0q-41.673763 0-41.673763-41.673763l0-791.801501q0-41.673763 41.673763-41.673763Z" fill="#F5F6FA" p-id="1608"></path><path d="M333.390106 187.531934m20.836881 0l208.368816 0q20.836882 0 20.836882 20.836882l0 458.411395q0 20.836882-20.836882 20.836882l-208.368816 0q-20.836882 0-20.836881-20.836882l0-458.411395q0-20.836882 20.836881-20.836882Z" fill="#E8F3FF" p-id="1609"></path><path d="M562.595803 177.113494H354.226987A31.255322 31.255322 0 0 0 322.971665 208.368816v458.411395A31.255322 31.255322 0 0 0 354.226987 698.035534h208.368816a31.255322 31.255322 0 0 0 31.255323-31.255323V208.368816A31.255322 31.255322 0 0 0 562.595803 177.113494z m0 20.836881a10.418441 10.418441 0 0 1 10.418441 10.418441v458.411395a10.418441 10.418441 0 0 1-10.418441 10.418441H354.226987a10.418441 10.418441 0 0 1-10.418441-10.418441V208.368816A10.418441 10.418441 0 0 1 354.226987 197.950375h208.368816z" fill="#4080FF" p-id="1610"></path><path d="M666.780211 187.531934m20.836882 0l208.368816 0q20.836882 0 20.836882 20.836882l0 458.411395q0 20.836882-20.836882 20.836882l-208.368816 0q-20.836882 0-20.836882-20.836882l0-458.411395q0-20.836882 20.836882-20.836882Z" fill="#E8F3FF" p-id="1611"></path><path d="M895.985909 177.113494H687.617093A31.255322 31.255322 0 0 0 656.361771 208.368816v458.411395a31.255322 31.255322 0 0 0 31.255322 31.255323h208.368816a31.255322 31.255322 0 0 0 31.255322-31.255323V208.368816A31.255322 31.255322 0 0 0 895.985909 177.113494z m0 20.836881a10.418441 10.418441 0 0 1 10.418441 10.418441v458.411395a10.418441 10.418441 0 0 1-10.418441 10.418441H687.617093a10.418441 10.418441 0 0 1-10.418441-10.418441V208.368816a10.418441 10.418441 0 0 1 10.418441-10.418441h208.368816z" fill="#4080FF" p-id="1612"></path></svg>